Coordinates
version=1
nRows=65
nColumns=12
inDegrees=yes

Units are S.I. units (second, meters, Newtons, ...)
Angles are in degrees

endheader
time	SC_y	SC_z	SC_x	AC_y	AC_z	AC_x	GH_y	GH_z	GH_yy	EL_x	PS_y
       0.0               -32.7          7.122           21.0          56.37         -14.24         -1.493          33.24          -16.9         -96.06          53.81          108.4
   0.02855              -32.69          7.122          21.01          56.37         -14.24         -1.495          33.25         -16.89         -96.06          53.82          108.4
   0.05709              -32.69          7.122          21.02          56.37         -14.24         -1.498          33.27         -16.88         -96.05          53.83          108.4
   0.08564              -32.69          7.122          21.02          56.37         -14.23           -1.5          33.28         -16.87         -96.05          53.83          108.4
    0.1142              -32.69          7.123          21.03          56.37         -14.23         -1.502           33.3         -16.86         -96.04          53.84          108.4
    0.1427              -32.69          7.123          21.04          56.37         -14.23         -1.505          33.32         -16.85         -96.04          53.85          108.4
    0.1713              -32.68          7.123          21.05          56.37         -14.23         -1.507          33.34         -16.83         -96.03          53.85          108.4
    0.1998              -32.68          7.124          21.06          56.37         -14.23          -1.51          33.36         -16.82         -96.03          53.86          108.4
    0.2284              -32.68          7.124          21.07          56.37         -14.23         -1.513          33.38         -16.81         -96.02          53.87          108.4
    0.2569              -32.67          7.124          21.08          56.37         -14.23         -1.516          33.41         -16.79         -96.01          53.88          108.4
    0.2855              -32.67          7.125          21.09          56.37         -14.22          -1.52          33.43         -16.77          -96.0          53.89          108.4
     0.314              -32.67          7.125           21.1          56.37         -14.22         -1.524          33.46         -16.76         -95.99           53.9          108.4
    0.3426              -32.66          7.126          21.12          56.37         -14.22         -1.528          33.49         -16.74         -95.99          53.91          108.4
    0.3711              -32.66          7.126          21.13          56.37         -14.22         -1.532          33.52         -16.71         -95.98          53.92          108.4
    0.3996              -32.65          7.127          21.15          56.37         -14.22         -1.537          33.55         -16.69         -95.96          53.94          108.4
    0.4282              -32.65          7.128          21.16          56.37         -14.21         -1.542          33.59         -16.67         -95.95          53.95          108.4
    0.4567              -32.64          7.128          21.18          56.37         -14.21         -1.548          33.63         -16.64         -95.94          53.97          108.4
    0.4853              -32.64          7.129           21.2          56.37         -14.21         -1.554          33.68         -16.61         -95.93          53.98          108.4
    0.5138              -32.63           7.13          21.22          56.37         -14.21         -1.561          33.72         -16.58         -95.91           54.0          108.5
    0.5424              -32.62          7.131          21.25          56.37          -14.2         -1.568          33.78         -16.55         -95.89          54.02          108.5
    0.5709              -32.61          7.132          21.27          56.38          -14.2         -1.576          33.83         -16.51         -95.87          54.05          108.5
    0.5995               -32.6          7.133           21.3          56.38         -14.19         -1.585           33.9         -16.46         -95.85          54.07          108.5
     0.628              -32.59          7.134          21.33          56.38         -14.19         -1.595          33.97         -16.42         -95.83           54.1          108.5
    0.6566              -32.58          7.136          21.37          56.38         -14.18         -1.606          34.05         -16.37         -95.81          54.13          108.5
    0.6851              -32.57          7.137          21.41          56.38         -14.18         -1.618          34.13         -16.31         -95.78          54.16          108.5
    0.7137              -32.56          7.139          21.45          56.38         -14.17         -1.631          34.23         -16.25         -95.75           54.2          108.5
    0.7422              -32.54          7.141           21.5          56.38         -14.16         -1.647          34.34         -16.17         -95.71          54.24          108.6
    0.7707              -32.52          7.143          21.56          56.38         -14.16         -1.664          34.46         -16.09         -95.67          54.29          108.6
    0.7993              -32.51          7.146          21.62          56.38         -14.15         -1.683           34.6          -16.0         -95.63          54.35          108.6
    0.8278              -32.48          7.148          21.69          56.38         -14.14         -1.705          34.76          -15.9         -95.58          54.41          108.6
    0.8564              -32.46          7.151          21.77          56.39         -14.12         -1.729          34.93         -15.78         -95.52          54.48          108.7
    0.8849              -32.43          7.155          21.87          56.39         -14.11         -1.758          35.14         -15.65         -95.46          54.56          108.7
    0.9135               -32.4          7.159          21.97          56.39          -14.1         -1.791          35.38         -15.49         -95.38          54.65          108.8
     0.942              -32.36          7.164           22.1          56.39         -14.08         -1.829          35.65         -15.31         -95.29          54.76          108.8
    0.9706              -32.31           7.17          22.24           56.4         -14.06         -1.874          35.97          -15.1         -95.19          54.88          108.9
    0.9991              -32.26          7.176          22.42           56.4         -14.03         -1.927          36.35         -14.85         -95.07          55.03          108.9
     1.028              -32.19          7.184          22.62          56.41          -14.0          -1.99           36.8         -14.55         -94.93          55.21          109.0
     1.056              -32.12          7.194          22.86          56.41         -13.96         -2.065          37.34         -14.19         -94.75          55.42          109.1
     1.085              -32.03          7.205          23.16          56.42         -13.92         -2.156           38.0         -13.76         -94.55          55.68          109.2
     1.113              -31.91           7.22          23.52          56.43         -13.87         -2.268           38.8         -13.24         -94.29          55.99          109.4
     1.142              -31.77          7.237          23.97          56.44          -13.8         -2.405          39.78         -12.59         -93.98          56.38          109.6
      1.17               -31.6          7.259          24.53          56.45         -13.72         -2.576          41.01         -11.78         -93.58          56.86          109.8
     1.199              -31.38          7.286          25.23          56.46         -13.62         -2.792          42.56         -10.75         -93.09          57.46          110.1
     1.227               -31.1          7.321          26.12          56.48         -13.49         -3.066          44.53         -9.456         -92.46          58.24          110.4
     1.256              -30.75          7.365          27.26          56.51         -13.32         -3.418          47.05         -7.795         -91.66          59.22          110.9
     1.285              -30.29          7.422          28.73          56.54          -13.1         -3.868          50.29         -5.663         -90.62          60.49          111.5
     1.313              -29.71          7.495           30.6          56.58         -12.83         -4.444          54.42          -2.94          -89.3          62.11          112.3
     1.342              -28.97          7.587          32.96          56.64         -12.48         -5.167          59.61         0.4848         -87.65          64.14          113.2
      1.37              -28.08          7.698          35.83           56.7         -12.06         -6.049          65.94          4.658         -85.62          66.62          114.4
     1.399              -27.05          7.828          39.15          56.77         -11.57         -7.071          73.28          9.495         -83.28          69.49          115.7
     1.427              -25.92          7.968          42.75          56.86         -11.04         -8.178          81.23          14.73         -80.75           72.6          117.2
     1.456               -24.8          8.108          46.36          56.94         -10.51         -9.285          89.17          19.97         -78.21          75.71          118.7
     1.484              -23.77          8.237          49.68          57.01         -10.02         -10.31          96.51          24.81         -75.87          78.58          120.0
     1.513              -22.87          8.349          52.55          57.07         -9.601         -11.19          102.8          28.98         -73.85          81.06          121.2
     1.541              -22.14          8.441          54.91          57.13         -9.255         -11.91          108.0           32.4         -72.19           83.1          122.1
      1.57              -21.56          8.514          56.78          57.17          -8.98         -12.49          112.2          35.13         -70.87          84.71          122.9
     1.599               -21.1          8.571          58.25           57.2         -8.765         -12.94          115.4          37.26         -69.84          85.98          123.5
     1.627              -20.74          8.615          59.39          57.23         -8.597         -13.29          117.9          38.92         -69.03          86.97          124.0
     1.656              -20.47           8.65          60.28          57.25         -8.466         -13.56          119.9          40.22          -68.4          87.74          124.3
     1.684              -20.25          8.677          60.98          57.26         -8.362         -13.78          121.4          41.24         -67.91          88.35          124.6
     1.713              -20.07          8.699          61.54          57.28          -8.28         -13.95          122.7          42.05         -67.52          88.83          124.8
     1.741              -19.93          8.716          61.99          57.29         -8.215         -14.09          123.7           42.7          -67.2          89.21          125.0
      1.77              -19.82           8.73          62.35          57.29         -8.162          -14.2          124.5          43.23         -66.95          89.53          125.2
     1.798              -19.73          8.742          62.65           57.3         -8.118         -14.29          125.1          43.66         -66.74          89.78          125.3
     1.827              -19.65          8.751          62.89          57.31         -8.082         -14.37          125.7          44.01         -66.56          89.99          125.4
